<svg width="101" height="41" viewBox="0 0 101 41" fill="none" xmlns="http://www.w3.org/2000/svg">
<path d="M67.9128 35.3012C66.3195 36.4633 64.3877 37.0692 62.4156 37.0253C59.3488 37.0253 56.3609 36.2369 54.7512 35.1961C54.9722 34.518 55.3456 33.2144 55.4982 32.468L59.0911 15.616C59.389 14.3389 59.5652 13.0365 59.6171 11.7262C59.6263 11.2368 59.5769 10.7479 59.4698 10.2702L64.6881 8.66174C64.8027 9.18988 64.8522 9.73005 64.8354 10.2702C64.8172 11.4373 64.6922 12.6003 64.4619 13.7447L63.8254 16.7724C63.6501 17.6467 63.4127 18.5074 63.1153 19.348C63.7681 18.5918 64.5752 17.9838 65.4825 17.565C66.3898 17.1461 67.3763 16.926 68.3757 16.9196C71.9317 16.9196 73.4993 19.4269 73.4993 23.5742C73.4993 28.2787 71.5162 32.7676 67.9286 35.3012H67.9128ZM66.5293 20.9933C64.9985 20.9933 63.373 22.2653 62.3788 23.9842L60.5114 32.4996C61.2448 33.0879 62.1712 33.3822 63.11 33.3248C64.1937 33.3248 65.5403 32.3156 66.2663 31.0856C67.3184 29.2143 68.0601 24.9934 68.0601 23.4953C68.0601 21.8553 67.5761 20.9933 66.5661 20.9933H66.5293ZM83.2469 15.2428C82.4288 15.2372 81.6464 14.9075 81.0715 14.3261C80.4965 13.7446 80.1759 12.9589 80.1801 12.1415C80.1835 11.731 80.2679 11.3252 80.4285 10.9474C80.589 10.5695 80.8225 10.227 81.1157 9.93947C81.4088 9.65191 81.7559 9.42493 82.1369 9.27153C82.518 9.11812 82.9255 9.0413 83.3363 9.04546C83.739 9.04889 84.1371 9.1318 84.5076 9.28945C84.8781 9.4471 85.2138 9.67636 85.4954 9.96407C85.777 10.2518 85.9989 10.5923 86.1483 10.9659C86.2978 11.3396 86.3719 11.7391 86.3663 12.1415C86.367 12.5489 86.2872 12.9525 86.1315 13.3291C85.9757 13.7057 85.7472 14.0478 85.4588 14.336C85.1705 14.6241 84.8281 14.8525 84.4512 15.0081C84.0743 15.1637 83.6704 15.2435 83.2627 15.2428H83.2469ZM80.5536 36.5417H75.5456L79.5436 17.7501L84.704 16.9616L80.5536 36.5417ZM99.4069 17.4084L97.6131 20.8461H94.2832L92.2632 30.4496C92.1391 30.9998 92.0773 31.5623 92.0791 32.1264C92.0791 33.1776 92.6367 33.514 93.7572 33.514C94.3974 33.4868 95.0294 33.3591 95.6299 33.1356V36.1633C94.2692 36.6924 92.8237 36.9702 91.3637 36.9833C88.4863 36.9833 86.8398 35.564 86.8398 33.698C86.8448 32.8696 86.9329 32.0437 87.1028 31.2328L89.3069 20.8461H87.4026L88.1496 17.4084H90.0591C90.3177 15.8719 90.7048 14.3597 91.2164 12.8879L96.4768 11.6158C95.9192 13.3715 95.3564 15.4635 94.9461 17.3979L99.4069 17.4084Z" fill="#155DA4"/>
<path d="M28.8286 3.63327C19.8228 7.83314 15.5145 12.853 13.0842 17.3472C13.0316 17.5154 13.1368 17.7362 13.2525 17.6206C15.8459 16.1908 18.2762 15.4707 19.9333 15.4707C23.8575 15.4497 27.3557 18.9242 27.3925 24.1806C27.3925 29.642 24.7623 34.1152 19.7702 36.6015C17.9265 37.5019 15.9091 37.9916 13.8575 38.0365C6.72962 38.0312 3.68384 32.9535 3.68384 27.3765C3.68384 15.6704 15.0726 5.67801 28.2237 1.92493C28.4972 2.03006 29.0496 3.4125 28.8286 3.63327ZM11.4798 21.0267C10.7152 23.1333 10.3219 25.3564 10.3172 27.5972C10.3172 33.1165 12.3635 35.7447 15.404 35.7447C18.7181 35.7447 21.0432 31.1295 21.0432 26.2831C20.9906 21.258 19.0022 18.8821 15.6881 18.8821C14.5799 18.9165 13.4967 19.2195 12.5319 19.7652C12.0693 20.0829 11.7049 20.5235 11.4798 21.0372V21.0267ZM54.0892 3.63327C45.0781 7.82788 40.7645 12.853 38.3342 17.3472C38.2816 17.5102 38.3868 17.731 38.5025 17.6206C41.0959 16.1856 43.5262 15.4654 45.1833 15.4654C49.1075 15.4444 52.6057 18.9242 52.6425 24.1806C52.6425 29.6472 50.0123 34.1204 45.0202 36.6067C43.1761 37.5054 41.1587 37.9932 39.1075 38.0365C31.9796 38.026 28.9338 32.9483 28.9338 27.3765C28.9338 15.6652 40.3226 5.67275 53.4737 1.91968C53.7525 2.03006 54.3048 3.4125 54.0839 3.63327H54.0892ZM36.735 21.0267C35.9676 23.1325 35.5742 25.3561 35.5725 27.5972C35.5725 33.1165 37.6188 35.7447 40.654 35.7447C43.9681 35.7447 46.2932 31.1295 46.2932 26.2831C46.2354 21.2633 44.2469 18.8874 40.9328 18.8874C39.8247 18.9217 38.7415 19.2248 37.7766 19.7704C37.3123 20.0862 36.9474 20.5274 36.7245 21.0425L36.735 21.0267Z" fill="#155DA4"/>
</svg>
