<svg width="55" height="26" viewBox="0 0 55 26" fill="none" xmlns="http://www.w3.org/2000/svg">
<g filter="url(#filter0_i_4183_1326)">
<rect width="55" height="26" rx="13" fill="#155DA4"/>
</g>
<circle cx="42" cy="13" r="10" fill="white"/>
<path d="M35.4916 14.4449C35.5597 14.3766 35.6452 14.3282 35.7388 14.3048C35.8324 14.2814 35.9306 14.2839 36.0228 14.3121C37.0358 14.6184 38.1129 14.644 39.1393 14.3864C40.1657 14.1288 41.103 13.5975 41.8513 12.8492C42.5996 12.1009 43.1309 11.1636 43.3885 10.1372C43.6461 9.11078 43.6205 8.0337 43.3142 7.02072C43.2858 6.92841 43.2831 6.83011 43.3064 6.73637C43.3296 6.64264 43.378 6.55702 43.4463 6.48873C43.5146 6.42044 43.6002 6.37205 43.694 6.34878C43.7877 6.32551 43.886 6.32823 43.9783 6.35665C45.3788 6.78567 46.6083 7.64546 47.4919 8.81369C48.2645 9.83957 48.7359 11.0606 48.8529 12.3396C48.9699 13.6186 48.7279 14.9048 48.1542 16.0539C47.5804 17.2029 46.6977 18.1692 45.605 18.8442C44.5124 19.5192 43.2532 19.8762 41.9688 19.875C40.4705 19.8796 39.012 19.3925 37.8171 18.4884C36.6489 17.6049 35.7891 16.3753 35.3601 14.9749C35.332 14.8829 35.3294 14.785 35.3525 14.6917C35.3757 14.5984 35.4238 14.5131 35.4916 14.4449ZM38.456 17.6397C39.5812 18.4873 40.9747 18.8998 42.3799 18.8014C43.7852 18.703 45.1076 18.1003 46.1037 17.1042C47.0999 16.1082 47.7027 14.7858 47.8012 13.3806C47.8997 11.9753 47.4873 10.5818 46.6399 9.4565C46.0878 8.7274 45.374 8.13637 44.5547 7.72994C44.6014 8.05747 44.6249 8.38788 44.6251 8.71872C44.6232 10.5498 43.8949 12.3053 42.6002 13.6C41.3054 14.8948 39.5499 15.623 37.7188 15.625C37.3873 15.6249 37.0563 15.6013 36.7281 15.5546C37.1349 16.374 37.7264 17.0878 38.456 17.6397Z" fill="#155DA4"/>
<defs>
<filter id="filter0_i_4183_1326" x="0" y="0" width="55" height="30" filterUnits="userSpaceOnUse" color-interpolation-filters="sRGB">
<feFlood flood-opacity="0" result="BackgroundImageFix"/>
<feBlend mode="normal" in="SourceGraphic" in2="BackgroundImageFix" result="shape"/>
<feColorMatrix in="SourceAlpha" type="matrix" values="0 0 0 0 0 0 0 0 0 0 0 0 0 0 0 0 0 0 127 0" result="hardAlpha"/>
<feOffset dy="4"/>
<feGaussianBlur stdDeviation="2"/>
<feComposite in2="hardAlpha" operator="arithmetic" k2="-1" k3="1"/>
<feColorMatrix type="matrix" values="0 0 0 0 0 0 0 0 0 0 0 0 0 0 0 0 0 0 0.25 0"/>
<feBlend mode="normal" in2="shape" result="effect1_innerShadow_4183_1326"/>
</filter>
</defs>
</svg>
